{
    "asset" : {
        "generator" : "Khronos glTF Blender I/O v1.6.16",
        "version" : "2.0"
    },
    "scene" : 0,
    "scenes" : [
        {
            "name" : "Scene",
            "nodes" : [
                0,
                1,
                2
            ]
        }
    ],
    "nodes" : [
        {
            "mesh" : 0,
            "name" : "Sphere",
            "translation" : [
                0,
                1.0091216564178467,
                -2.9994187355041504
            ]
        },
        {
            "mesh" : 1,
            "name" : "Cube",
            "translation" : [
                0,
                1.1286920309066772,
                3.1064882278442383
            ]
        },
        {
            "mesh" : 2,
            "name" : "Bunny",
            "rotation" : [
                0.7071068286895752,
                0,
                0,
                0.7071067094802856
            ],
            "scale" : [
                15.425196647644043,
                15.425196647644043,
                15.425196647644043
            ],
            "translation" : [
                0,
                -0.5612712502479553,
                0
            ]
        }
    ],
    "materials" : [
        {
            "name" : "Material_0",
            "normalTexture" : {
                "index" : 0
            },
            "pbrMetallicRoughness" : {
                "baseColorTexture" : {
                    "index" : 1
                },
                "metallicFactor" : 0
            }
        },
        {
            "doubleSided" : true,
            "name" : "Material",
            "pbrMetallicRoughness" : {
                "baseColorFactor" : [
                    0.800000011920929,
                    0.800000011920929,
                    0.800000011920929,
                    1
                ],
                "metallicFactor" : 0,
                "roughnessFactor" : 0.4000000059604645
            }
        },
        {
            "doubleSided" : true,
            "name" : "Default OBJ",
            "pbrMetallicRoughness" : {
                "baseColorFactor" : [
                    0.800000011920929,
                    0.800000011920929,
                    0.800000011920929,
                    1
                ],
                "metallicFactor" : 0,
                "roughnessFactor" : 0.5
            }
        }
    ],
    "meshes" : [
        {
            "name" : "Mesh_0",
            "primitives" : [
                {
                    "attributes" : {
                        "POSITION" : 0,
                        "NORMAL" : 1,
                        "TEXCOORD_0" : 2
                    },
                    "indices" : 3,
                    "material" : 0
                }
            ]
        },
        {
            "name" : "Cube",
            "primitives" : [
                {
                    "attributes" : {
                        "POSITION" : 4,
                        "NORMAL" : 5,
                        "TEXCOORD_0" : 6
                    },
                    "indices" : 7,
                    "material" : 1
                }
            ]
        },
        {
            "name" : "Bunny",
            "primitives" : [
                {
                    "attributes" : {
                        "POSITION" : 8,
                        "NORMAL" : 9
                    },
                    "indices" : 10,
                    "material" : 2
                }
            ]
        }
    ],
    "textures" : [
        {
            "sampler" : 0,
            "source" : 0
        },
        {
            "sampler" : 0,
            "source" : 1
        }
    ],
    "images" : [
        {
            "bufferView" : 4,
            "mimeType" : "image/png",
            "name" : "sphere_Texture0_Normal"
        },
        {
            "bufferView" : 5,
            "mimeType" : "image/png",
            "name" : "sphere_Texture1_BaseColor"
        }
    ],
    "accessors" : [
        {
            "bufferView" : 0,
            "componentType" : 5126,
            "count" : 231,
            "max" : [
                1,
                1,
                1
            ],
            "min" : [
                -1,
                -1,
                -1
            ],
            "type" : "VEC3"
        },
        {
            "bufferView" : 1,
            "componentType" : 5126,
            "count" : 231,
            "type" : "VEC3"
        },
        {
            "bufferView" : 2,
            "componentType" : 5126,
            "count" : 231,
            "type" : "VEC2"
        },
        {
            "bufferView" : 3,
            "componentType" : 5123,
            "count" : 672,
            "type" : "SCALAR"
        },
        {
            "bufferView" : 6,
            "componentType" : 5126,
            "count" : 24,
            "max" : [
                1,
                1,
                1
            ],
            "min" : [
                -1,
                -1,
                -1
            ],
            "type" : "VEC3"
        },
        {
            "bufferView" : 7,
            "componentType" : 5126,
            "count" : 24,
            "type" : "VEC3"
        },
        {
            "bufferView" : 8,
            "componentType" : 5126,
            "count" : 24,
            "type" : "VEC2"
        },
        {
            "bufferView" : 9,
            "componentType" : 5123,
            "count" : 36,
            "type" : "SCALAR"
        },
        {
            "bufferView" : 10,
            "componentType" : 5126,
            "count" : 34834,
            "max" : [
                0.0610090009868145,
                0.058800000697374344,
                -0.032986998558044434
            ],
            "min" : [
                -0.0946900025010109,
                -0.06187399849295616,
                -0.1873210072517395
            ],
            "type" : "VEC3"
        },
        {
            "bufferView" : 11,
            "componentType" : 5126,
            "count" : 34834,
            "type" : "VEC3"
        },
        {
            "bufferView" : 12,
            "componentType" : 5123,
            "count" : 208353,
            "type" : "SCALAR"
        }
    ],
    "bufferViews" : [
        {
            "buffer" : 0,
            "byteLength" : 2772,
            "byteOffset" : 0
        },
        {
            "buffer" : 0,
            "byteLength" : 2772,
            "byteOffset" : 2772
        },
        {
            "buffer" : 0,
            "byteLength" : 1848,
            "byteOffset" : 5544
        },
        {
            "buffer" : 0,
            "byteLength" : 1344,
            "byteOffset" : 7392
        },
        {
            "buffer" : 0,
            "byteLength" : 21452,
            "byteOffset" : 8736
        },
        {
            "buffer" : 0,
            "byteLength" : 27647,
            "byteOffset" : 30188
        },
        {
            "buffer" : 0,
            "byteLength" : 288,
            "byteOffset" : 57836
        },
        {
            "buffer" : 0,
            "byteLength" : 288,
            "byteOffset" : 58124
        },
        {
            "buffer" : 0,
            "byteLength" : 192,
            "byteOffset" : 58412
        },
        {
            "buffer" : 0,
            "byteLength" : 72,
            "byteOffset" : 58604
        },
        {
            "buffer" : 0,
            "byteLength" : 418008,
            "byteOffset" : 58676
        },
        {
            "buffer" : 0,
            "byteLength" : 418008,
            "byteOffset" : 476684
        },
        {
            "buffer" : 0,
            "byteLength" : 416706,
            "byteOffset" : 894692
        }
    ],
    "samplers" : [
        {
            "magFilter" : 9729,
            "minFilter" : 9987
        }
    ],
    "buffers" : [
        {
            "byteLength" : 1311400,
            "uri" : "data:application/octet-stream;base64,"
        }
    ]
}
